<?xml version="1.0" encoding="utf-8"?>
<!-- Generator: Adobe Illustrator 25.4.1, SVG Export Plug-In . SVG Version: 6.00 Build 0)  -->
<svg version="1.1" id="Layer_1" xmlns="http://www.w3.org/2000/svg" xmlns:xlink="http://www.w3.org/1999/xlink" x="0px" y="0px"
	 viewBox="0 0 800 138.8" style="enable-background:new 0 0 800 138.8;" xml:space="preserve">
<style type="text/css">
	.st0{fill:#747373;}
</style>
<g>
	<path class="st0" d="M345.2,118l-34.1-94.9c-0.4-1.3-1.1-3-1.1-4.6c0-4.1,3.5-8,8.5-8c4.3,0,7.2,2.8,8.5,6.9l28.2,81.7l28.4-82
		c1.3-3.9,3.9-6.7,8.2-6.7h0.9c4.6,0,7.4,2.8,8.7,6.7l28.2,82l28.7-82.2c1.1-3.5,3.5-6.5,8-6.5c4.8,0,8.2,3.7,8.2,7.8
		c0,1.5-0.7,3.2-1.1,4.6L439.2,118c-1.8,5-5.2,7.6-9.1,7.6h-0.6c-4.3,0-7.6-2.6-9.1-7.6l-28-80.6L364.1,118c-1.5,5-4.8,7.6-9.1,7.6
		h-0.5C350.4,125.6,347,123,345.2,118"/>
	<path class="st0" d="M593.6,18.8c0-4.6,3.7-8.5,8.2-8.5c4.8,0,8.5,3.7,8.5,8.5v19.3c8.3-18.7,26.6-27.5,38.7-27.5
		c5,0,8.3,3.7,8.3,8.5c0,4.6-3,7.8-7.4,8.5c-21.7,2.6-39.6,18.9-39.6,51.3v38.1c0,4.6-3.5,8.5-8.3,8.5c-4.8,0-8.5-3.7-8.5-8.5V18.8"
		/>
	<path class="st0" d="M711,126.5c-30.3,0-55-23.5-55-57.9v-0.4c0-32,22.4-57.9,52.8-57.9c32.6,0,51.1,26.9,51.1,56.4
		c0,4.5-3.7,7.8-7.7,7.8h-79.6c2.3,24.1,19.1,37.6,38.8,37.6c13.6,0,23.6-5.4,31.7-12.9c1.3-1.1,2.8-1.9,4.7-1.9
		c4,0,7.2,3.2,7.2,7.1c0,1.9-0.8,3.9-2.6,5.4C742.1,119.8,729.7,126.5,711,126.5 M743.6,62.1c-1.7-20.2-13.2-37.9-35.2-37.9
		c-19.2,0-33.7,16.1-35.8,37.9H743.6z"/>
	<path class="st0" d="M474.9,91.6v-0.4c0-23.6,19.5-36.2,47.9-36.2c14.3,0,24.5,2,34.5,4.8v-3.9c0-20.1-12.4-30.6-33.4-30.6
		c-11.3,0-17.8,1.4-26.1,5.1c-1.1,0.4-2.2,0.7-3,0.7c-3.9,0-7.4-3.3-7.4-7.2c0-3.5,1.5-5.6,4.6-6.9c11-4.8,19.4-6.4,33.7-6.4
		c15.8,0,28,4.1,36.2,12.3c7.6,7.6,11.5,18.4,11.5,32.7v61.9c0,4.8-3.5,8.2-8,8.2c-4.7,0-8-3.5-8-7.8v-10.7
		c-7.8,10.2-20.8,19.3-40.5,19.3C495.9,126.5,474.9,114.6,474.9,91.6 M557.5,83V72.1c-8.2-2.4-19.3-4.8-33-4.8
		c-21,0-32.7,9.1-32.7,23.2V91c0,14.1,13,22.3,28.2,22.3C540.5,113.3,557.5,100.7,557.5,83"/>
	<path class="st0" d="M41.6,17.6c-3.7-8-12.7-11.7-21.2-7.9c-8.5,3.8-11.6,13.2-7.8,21.2l35.6,77.3c5.6,12.1,11.5,18.5,22.6,18.5
		c11.8,0,17-6.9,22.6-18.5c0,0,31-67.6,31.3-68.3c0.3-0.7,1.3-2.9,4.5-2.9c2.7,0,4.9,2.2,4.9,5v66.1c0,10.2,5.6,18.5,16.5,18.5
		c10.9,0,16.7-8.4,16.7-18.5V54.1c0-10.4,7.5-17.2,17.7-17.2c10.2,0,17,7,17,17.2v54.1c0,10.2,5.7,18.5,16.5,18.5
		c10.9,0,16.8-8.4,16.8-18.5V54.1c0-10.4,7.4-17.2,17.6-17.2c10.2,0,17,7,17,17.2v54.1c0,10.2,5.7,18.5,16.5,18.5
		c10.8,0,16.7-8.4,16.7-18.5V46.6c0-22.6-18.2-38.5-40.1-38.5c-21.9,0-35.5,15.1-35.5,15.1c-7.3-9.4-17.3-15.1-34.3-15.1
		c-17.9,0-33.6,15.1-33.6,15.1c-7.3-9.4-19.7-15.1-29.9-15.1c-15.9,0-28.5,7-36.2,24.6L70.7,86.3L41.6,17.6"/>
	<path class="st0" d="M761.3,24.3L761.3,24.3c0-7.7,6.1-14,13.9-14c7.8,0,13.9,6.3,13.9,13.9v0.1c0,7.6-6.1,14-13.9,14
		C767.4,38.2,761.3,31.9,761.3,24.3 M786.4,24.2L786.4,24.2c0-6.3-4.8-11.4-11.2-11.4c-6.4,0-11.2,5.2-11.2,11.4v0.1
		c0,6.2,4.8,11.3,11.2,11.3C781.5,35.6,786.4,30.4,786.4,24.2"/>
	<path class="st0" d="M769.9,18.7c0-0.8,0.7-1.5,1.5-1.5h4.6c1.7,0,3.1,0.5,3.9,1.4c0.8,0.7,1.2,1.8,1.2,3.1v0
		c0,2.1-1.1,3.4-2.7,4.1l2,2.5c0.3,0.4,0.5,0.7,0.5,1.1c0,0.8-0.7,1.4-1.4,1.4c-0.7,0-1.1-0.3-1.5-0.8l-2.9-3.6h-2.4v2.9
		c0,0.8-0.6,1.5-1.5,1.5s-1.5-0.7-1.5-1.5V18.7z M775.8,23.8c1.4,0,2.2-0.8,2.2-1.9v0c0-1.3-0.9-1.9-2.3-1.9h-2.9v3.9H775.8z"/>
</g>
</svg>
